<svg width="256" height="256" viewBox="0 0 256 256" fill="none" xmlns="http://www.w3.org/2000/svg">
  <defs>
    <linearGradient id="walletGrad" x1="56" y1="78" x2="204" y2="202" gradientUnits="userSpaceOnUse">
      <stop stop-color="#F8CF70"/>
      <stop offset="1" stop-color="#BB7A1F"/>
    </linearGradient>
    <linearGradient id="panelGrad" x1="124" y1="148" x2="214" y2="194" gradientUnits="userSpaceOnUse">
      <stop stop-color="#D18D2F"/>
      <stop offset="1" stop-color="#9B5D14"/>
    </linearGradient>
    <radialGradient id="coinGrad" cx="0" cy="0" r="1" gradientUnits="userSpaceOnUse" gradientTransform="translate(178 62) rotate(90) scale(34)">
      <stop stop-color="#FFE7A8"/>
      <stop offset="1" stop-color="#CC8520"/>
    </radialGradient>
    <filter id="coinGlow" x="124" y="8" width="108" height="108" filterUnits="userSpaceOnUse" color-interpolation-filters="sRGB">
      <feGaussianBlur stdDeviation="9"/>
    </filter>
  </defs>

  <g filter="url(#coinGlow)" opacity="0.45">
    <circle cx="178" cy="62" r="28" fill="#F7C86E"/>
  </g>

  <path d="M58 100C58 89 66.9 80 78 80H152C169.7 80 184 94.3 184 112V120" stroke="#E5BA68" stroke-width="10" stroke-linecap="round"/>

  <rect x="46" y="102" width="170" height="118" rx="22" fill="url(#walletGrad)" stroke="#825311" stroke-width="5"/>

  <rect x="64" y="118" width="106" height="52" rx="10" fill="#E9BB5B" stroke="#9D691A" stroke-width="4"/>

  <rect x="128" y="150" width="104" height="48" rx="12" fill="url(#panelGrad)"/>
  <rect x="128" y="150" width="104" height="48" rx="12" stroke="#7E470C" stroke-width="4"/>

  <circle cx="178" cy="62" r="34" fill="url(#coinGrad)" stroke="#8F5A10" stroke-width="4"/>
  <path d="M171 81V45M185 81V45M163 45H186C192 45 197 49 197 55C197 61 192 64 186 64H163H184C190 64 195 68 195 74C195 80 190 84 184 84H163" stroke="#5E3505" stroke-width="5" stroke-linecap="round" stroke-linejoin="round"/>

  <text x="177" y="182" text-anchor="middle" font-size="27" font-weight="800" font-family="Segoe UI, Arial, sans-serif" fill="#130A01">B</text>
</svg>
